<svg width="40" height="36" viewBox="0 0 40 36" fill="none" xmlns="http://www.w3.org/2000/svg">
<rect x="0.559998" width="10.0418" height="10.08" rx="1" fill="#212121"/>
<rect x="15.0527" width="10.0418" height="10.08" rx="1" fill="#212121"/>
<rect width="10.0418" height="10.08" rx="1" transform="matrix(1 0 0 -1 12.1836 36)" fill="#212121"/>
<rect width="10.0418" height="10.08" rx="1" transform="matrix(1 0 0 -1 26.6763 36)" fill="#212121"/>
<line y1="-0.5" x2="27.0366" y2="-0.5" transform="matrix(0.424476 0.905439 -0.904195 0.427121 5.01093 5.76001)" stroke="#212121"/>
<line y1="-0.5" x2="27.0366" y2="-0.5" transform="matrix(0.424476 0.905439 -0.904195 0.427121 19.5036 5.76001)" stroke="#212121"/>
<rect x="6.0592" y="12.96" width="10.0418" height="10.08" rx="1" fill="#212121"/>
<rect x="20.5519" y="12.96" width="10.0418" height="10.08" rx="1" fill="#212121"/>
<rect x="29.3983" width="10.0418" height="10.08" rx="1" fill="#212121"/>
</svg>
